<svg xmlns="http://www.w3.org/2000/svg" width="16" height="16" fill="none" viewBox="0 0 16 16"><circle cx="8" cy="8" r="8" fill="#fff" opacity=".6"/><path fill="#242265" fill-opacity=".8" fill-rule="evenodd" d="M10.2827 4H12V5.28693C12 6.81117 10.7899 8 9.29917 8H9.25433H8V6.67579C8 5.32531 8.9889 4.20559 10.2827 4Z" clip-rule="evenodd"/><path fill="#616EE1" fill-opacity=".8" d="M12.0001 4V5.28704C12.0001 6.76852 10.8101 7.97231 9.33303 7.99623L9.28819 7.9966L8 7.99667V9.28693C8 10.8112 6.78991 12 5.29917 12H4V10.6747C4 10.6688 4.00002 10.6629 4.00006 10.657V7.79338C4.00006 5.69835 5.69986 4 7.79666 4H12.0001Z"/></svg>