<svg xmlns="http://www.w3.org/2000/svg" width="36" height="36" fill="none" viewBox="0 0 36 36"><mask id="mask0_10110_12580" width="36" height="36" x="0" y="0" maskUnits="userSpaceOnUse" style="mask-type:alpha"><rect width="36" height="36" fill="#C4C4C4"/></mask><g mask="url(#mask0_10110_12580)"><g filter="url(#filter0_f_10110_12580)"><ellipse cx="18" cy="27" fill="#9CA6FE" rx="10" ry="2.5"/></g></g><path fill="url(#paint0_linear_10110_12580)" d="M32 10.8215C32.5523 10.8215 33 11.2692 33 11.8215L33 20.1782C33 20.7305 32.5523 21.1782 32 21.1782L26.786 21.1782L26.786 10.8215L32 10.8215Z"/><rect width="1.434" height="2.868" x="30.69" y="12.893" fill="url(#paint1_linear_10110_12580)" transform="rotate(90 30.6899 12.8931)"/><rect width="1.434" height="2.868" x="30.69" y="17.195" fill="url(#paint2_linear_10110_12580)" transform="rotate(90 30.6899 17.1946)"/><rect width="18.242" height="22.544" x="26.705" y="6.879" fill="url(#paint3_linear_10110_12580)" stroke="url(#paint4_linear_10110_12580)" stroke-width=".4" rx="3.8" transform="rotate(90 26.7053 6.87896)"/><path fill="url(#paint5_linear_10110_12580)" d="M15.9118 10.5029L11.1318 16.2389H15.4338L14.9558 20.0629L19.7358 14.3269H15.4338L15.9118 10.5029Z"/><defs><filter id="filter0_f_10110_12580" width="36" height="21" x="0" y="16.5" color-interpolation-filters="sRGB" filterUnits="userSpaceOnUse"><feFlood flood-opacity="0" result="BackgroundImageFix"/><feBlend in="SourceGraphic" in2="BackgroundImageFix" mode="normal" result="shape"/><feGaussianBlur result="effect1_foregroundBlur_10110_12580" stdDeviation="4"/></filter><linearGradient id="paint0_linear_10110_12580" x1="33" x2="25.528" y1="16" y2="16.523" gradientUnits="userSpaceOnUse"><stop stop-color="#D7DBFF"/><stop offset="1" stop-color="#BBC2FF"/></linearGradient><linearGradient id="paint1_linear_10110_12580" x1="31.407" x2="31.407" y1="12.893" y2="15.761" gradientUnits="userSpaceOnUse"><stop stop-color="#fff"/><stop offset="1" stop-color="#fff" stop-opacity=".57"/></linearGradient><linearGradient id="paint2_linear_10110_12580" x1="31.407" x2="31.407" y1="17.195" y2="20.063" gradientUnits="userSpaceOnUse"><stop stop-color="#fff"/><stop offset="1" stop-color="#fff" stop-opacity=".57"/></linearGradient><linearGradient id="paint3_linear_10110_12580" x1="25.471" x2="44.113" y1="8.113" y2="8.113" gradientUnits="userSpaceOnUse"><stop stop-color="#C1C5F2"/><stop offset="1" stop-color="#848EEA"/></linearGradient><linearGradient id="paint4_linear_10110_12580" x1="26.387" x2="34.155" y1="6.28" y2="19.226" gradientUnits="userSpaceOnUse"><stop stop-color="#fff"/><stop offset="1" stop-color="#fff" stop-opacity="0"/></linearGradient><linearGradient id="paint5_linear_10110_12580" x1="15.434" x2="15.5" y1="10.503" y2="29.5" gradientUnits="userSpaceOnUse"><stop stop-color="#fff"/><stop offset="1" stop-color="#fff" stop-opacity="0"/></linearGradient></defs></svg>