<svg xmlns="http://www.w3.org/2000/svg" width="32" height="32" fill="none" viewBox="0 0 32 32"><mask id="mask0_10064_11327" width="32" height="32" x="0" y="0" maskUnits="userSpaceOnUse" style="mask-type:alpha"><rect width="32" height="32" fill="#fff"/></mask><g mask="url(#mask0_10064_11327)"><path fill="#fff" d="M28.9994 4V7.861C28.9994 12.3053 25.4296 15.9165 20.9986 15.9883L20.8641 15.9894L16.9996 15.9896V19.8603C16.9996 24.4328 13.3695 27.9992 8.8974 27.9992H5V24.0236C5 24.0058 5.00006 23.988 5.00017 23.9703V15.3798C5.00017 9.0949 10.0994 4 16.3896 4H28.9994Z"/><path fill="#242265" fill-opacity=".8" fill-rule="evenodd" d="M23.8475 4H28.9992V7.86068C28.9992 12.4332 25.3691 15.9996 20.897 15.9996H20.7625H16.9996V12.0271C16.9996 7.97582 19.9662 4.61676 23.8475 4Z" clip-rule="evenodd"/><path fill="#616EE1" fill-opacity=".8" d="M28.9994 4V7.861C28.9994 12.3053 25.4296 15.9165 20.9986 15.9883L20.8641 15.9894L16.9996 15.9896V19.8603C16.9996 24.4328 13.3695 27.9992 8.8974 27.9992H5V24.0236C5 24.0058 5.00006 23.988 5.00017 23.9703V15.3798C5.00017 9.0949 10.0994 4 16.3896 4H28.9994Z"/></g></svg>