<svg xmlns="http://www.w3.org/2000/svg" width="348" height="60" fill="none" viewBox="0 0 348 60"><path fill="url(#paint0_linear)" stroke="#F0F3FF" d="M0.5 4C0.5 2.067 2.067 0.5 4 0.5H344C345.933 0.5 347.5 2.067 347.5 4V59.5H0.5V4Z"/><mask id="mask0" width="348" height="60" x="0" y="0" maskUnits="userSpaceOnUse" style="mask-type:alpha"><path fill="#fff" d="M0 4C0 1.79086 1.79086 0 4 0H344C346.209 0 348 1.79086 348 4V60H0V4Z"/></mask><g mask="url(#mask0)"><path fill="url(#paint1_linear)" fill-rule="evenodd" d="M265.684 53.4949L266.835 92.7069L307.354 93.8208L265.684 53.4949ZM321.514 22.8604L277.772 65.1915L296.363 83.1822L340.105 40.8511L321.514 22.8604Z" clip-rule="evenodd" opacity=".16"/><path fill="url(#paint2_linear)" fill-rule="evenodd" d="M200.684 -29.2814L201.835 9.93049L242.354 11.0444L200.684 -29.2814ZM256.514 -59.916L212.772 -17.5849L231.363 0.405873L275.105 -41.9252L256.514 -59.916Z" clip-rule="evenodd" opacity=".1"/><g opacity=".2"><path fill="url(#paint3_linear)" fill-rule="evenodd" d="M365.316 65.2463L364.165 26.0344L323.646 24.9205L365.316 65.2463ZM309.486 95.8807L353.228 53.5496L334.637 35.5589L290.895 77.89L309.486 95.8807Z" clip-rule="evenodd"/><path fill="url(#paint4_linear)" fill-rule="evenodd" d="M365.316 65.2463L364.165 26.0344L323.646 24.9205L365.316 65.2463ZM309.486 95.8807L353.228 53.5496L334.637 35.5589L290.895 77.89L309.486 95.8807Z" clip-rule="evenodd"/></g><path fill="url(#paint5_linear)" fill-rule="evenodd" d="M5.50622 25.4197L6.35447 54.3172L36.2152 55.1381L5.50622 25.4197ZM46.6499 2.84319L14.4139 34.0393L28.1142 47.2977L60.3502 16.1016L46.6499 2.84319Z" clip-rule="evenodd" opacity=".2"/><g opacity=".3"><path fill="url(#paint6_linear)" fill-rule="evenodd" d="M78.9303 34.0788L78.0821 5.18136L48.2214 4.36046L78.9303 34.0788ZM37.7866 56.6554L70.0226 25.4592L56.3223 12.2008L24.0863 43.397L37.7866 56.6554Z" clip-rule="evenodd"/><path fill="url(#paint7_linear)" fill-rule="evenodd" d="M78.9303 34.0788L78.0821 5.18136L48.2214 4.36046L78.9303 34.0788ZM37.7866 56.6554L70.0226 25.4592L56.3223 12.2008L24.0863 43.397L37.7866 56.6554Z" clip-rule="evenodd"/></g></g><defs><linearGradient id="paint0_linear" x1="0" x2="350.558" y1="26" y2="28.095" gradientUnits="userSpaceOnUse"><stop stop-color="#F0F3FF"/><stop offset="1" stop-color="#F8F9FE"/></linearGradient><linearGradient id="paint1_linear" x1="266.268" x2="344.733" y1="96.455" y2="5.915" gradientUnits="userSpaceOnUse"><stop stop-color="#FFBB93"/><stop offset="1" stop-color="#F9D7C3" stop-opacity="0"/></linearGradient><linearGradient id="paint2_linear" x1="201.268" x2="279.733" y1="13.679" y2="-76.861" gradientUnits="userSpaceOnUse"><stop stop-color="#FFBB93"/><stop offset="1" stop-color="#F9D7C3" stop-opacity="0"/></linearGradient><linearGradient id="paint3_linear" x1="352.927" x2="294.948" y1="28.735" y2="95.182" gradientUnits="userSpaceOnUse"><stop stop-color="#68BE76"/><stop offset="1" stop-color="#68BE76" stop-opacity="0"/></linearGradient><linearGradient id="paint4_linear" x1="354.504" x2="296.977" y1="30.797" y2="97.673" gradientUnits="userSpaceOnUse"><stop stop-color="#ABB7E8"/><stop offset="1" stop-color="#FFF0FD"/></linearGradient><linearGradient id="paint5_linear" x1="5.937" x2="63.762" y1="57.08" y2="-9.644" gradientUnits="userSpaceOnUse"><stop stop-color="#FFBB93"/><stop offset="1" stop-color="#F9D7C3" stop-opacity="0"/></linearGradient><linearGradient id="paint6_linear" x1="71.274" x2="28.547" y1="7.172" y2="56.141" gradientUnits="userSpaceOnUse"><stop stop-color="#68BE76"/><stop offset="1" stop-color="#68BE76" stop-opacity="0"/></linearGradient><linearGradient id="paint7_linear" x1="72.436" x2="30.042" y1="8.692" y2="57.976" gradientUnits="userSpaceOnUse"><stop stop-color="#ABB7E8"/><stop offset="1" stop-color="#FFF0FD"/></linearGradient></defs></svg>