<svg xmlns="http://www.w3.org/2000/svg" width="28" height="28" fill="none" viewBox="0 0 28 28"><g id="Property 1=ETH tag"><path id="多边形备份" fill="#E5E6ED" fill-rule="evenodd" d="M12.0003 1.15504C13.2379 0.440508 14.7627 0.440508 16.0003 1.15504L24.1247 5.84564C25.3623 6.56017 26.1247 7.88068 26.1247 9.30974V18.6909C26.1247 20.12 25.3623 21.4405 24.1247 22.155L16.0003 26.8456C14.7627 27.5602 13.2379 27.5602 12.0003 26.8456L3.87598 22.155C2.63837 21.4405 1.87598 20.12 1.87598 18.6909V9.30974C1.87598 7.88068 2.63837 6.56017 3.87598 5.84564L12.0003 1.15504Z" clip-rule="evenodd"/><path id="多边形备份 (Stroke)" fill="#fff" fill-rule="evenodd" d="M23.5247 6.88487L15.4003 2.19427C14.534 1.6941 13.4667 1.6941 12.6003 2.19427L4.47598 6.88487C3.60965 7.38504 3.07598 8.3094 3.07598 9.30974V18.6909C3.07598 19.6913 3.60965 20.6156 4.47598 21.1158L12.6003 25.8064C13.4667 26.3066 14.534 26.3066 15.4003 25.8064L23.5247 21.1158C24.391 20.6156 24.9247 19.6913 24.9247 18.6909V9.30974C24.9247 8.3094 24.391 7.38504 23.5247 6.88487ZM16.0003 1.15504C14.7627 0.440508 13.2379 0.440508 12.0003 1.15504L3.87598 5.84564C2.63837 6.56017 1.87598 7.88068 1.87598 9.30974V18.6909C1.87598 20.12 2.63837 21.4405 3.87598 22.155L12.0003 26.8456C13.2379 27.5602 14.7627 27.5602 16.0003 26.8456L24.1247 22.155C25.3623 21.4405 26.1247 20.12 26.1247 18.6909V9.30974C26.1247 7.88068 25.3623 6.56017 24.1247 5.84564L16.0003 1.15504Z" clip-rule="evenodd"/><g id="ethereum"><rect id="矩形" width="16" height="16" x="6" y="6" fill="#000" opacity=".01"/><path id="形状" fill="#8C8C8C" d="M18.7469 14.15L14 17.05L9.25 14.15L14 6L18.7469 14.15Z"/><path id="路径" fill="#3C3C3B" fill-rule="evenodd" d="M14 17.9811L9.25 15.0811L14 21.9998L18.75 15.0811L14 17.9811Z" clip-rule="evenodd"/><path id="路径 3" fill="#8C8C8C" fill-rule="evenodd" d="M9.12891 14.9004L14.0005 17.9755V22.0004L9.12891 14.9004Z" clip-rule="evenodd"/><path id="路径 4" fill="#343434" fill-rule="evenodd" d="M14 6V17.05L18.75 14.15L14 6Z" clip-rule="evenodd"/><path id="路径 6" fill="#393939" fill-rule="evenodd" d="M9.25 14.1504L14 12.5195V17.0504L9.25 14.1504Z" clip-rule="evenodd"/><path id="路径 7" fill="#141414" fill-rule="evenodd" d="M14 12.5195V17.0504L18.75 14.1504L14 12.5195Z" clip-rule="evenodd"/></g></g></svg>